<svg xmlns="http://www.w3.org/2000/svg" viewBox="0 0 48 48">
  <path fill="#EA4335" d="M24 9.5c3.54 0 6.72 1.22 9.22 3.6l6.9-6.9C35.9 2.3 30.4 0 24 0 14.6 0 6.5 5.38 2.56 13.22l8.02 6.22C12.7 13.02 17.9 9.5 24 9.5z"></path>
  <path fill="#4285F4" d="M46.5 24.5c0-1.67-.15-3.28-.43-4.84H24v9.16h12.7c-.55 2.94-2.2 5.43-4.7 7.1l7.28 5.64c4.26-3.93 6.72-9.72 6.72-17.06z"></path>
  <path fill="#FBBC05" d="M10.58 28.44c-.48-1.44-.76-2.98-.76-4.44s.27-3 .76-4.44l-8.02-6.22C.92 16.46 0 20.12 0 24c0 3.88.92 7.54 2.56 10.66l8.02-6.22z"></path>
  <path fill="#34A853" d="M24 48c6.4 0 11.8-2.1 15.72-5.72l-7.28-5.64c-2.02 1.36-4.6 2.16-8.44 2.16-6.1 0-11.3-3.52-13.42-8.44l-8.02 6.22C6.5 42.62 14.6 48 24 48z"></path>
</svg>
